P3
4 4
255
255 0 0 	100 255 0 	0 0 255 	255 255 255 	
0 255 255 	255 255 255 	255 255 255 	0 0 0 	
0 0 0 	255 255 255 	0 15 175 	255 255 255 	
255 0 255 	0 255 255 	255 0 0 	255 255 255 	
